<svg color="#523a8c" fill="none" viewBox="0 0 20 20" xmlns="http://www.w3.org/2000/svg">
  <path
    d="M9.99999 20C15.5229 20 20 15.5228 20 9.99999C20 4.47714 15.5229 3.05176e-05 9.99999 3.05176e-05C4.47712 3.05176e-05 0 4.47716 0 9.99999C0 15.5228 4.47714 20 9.99999 20Z"
    fill="currentColor"
  />
  <path
    d="M9.19475 16.0605H10.8047V12.9272L13.7979 14.6589L14.5455 13.361L10.5727 11.062C10.2194 10.8581 9.78131 10.8581 9.42805 11.062L5.45459 13.361L6.20223 14.6589L9.19542 12.9272V16.0605H9.19476H9.19475Z"
    fill="#F4F4F9"
  />
  <path
    d="M3.93896 11.0817L4.70941 12.4242L8.80407 10.0464C9.16813 9.83544 9.39351 9.44179 9.39351 9.01858V4.24236H7.85264V7.8465L5.0632 6.22581L4.23404 7.6713L7.02279 9.29132L3.93897 11.0817H3.93896Z"
    fill="#F4F4F9"
  />
  <path
    d="M10.606 4.24236V9.01926C10.606 9.44179 10.8321 9.83544 11.1955 10.0464L15.29 12.4242L16.0605 11.0817L12.9831 9.29475L15.7312 7.67338L14.902 6.22855L12.1463 7.85337V4.24236H10.606L10.606 4.24236Z"
    fill="#F4F4F9"
  />
</svg>